<svg width="159" height="50" viewBox="0 0 159 50"  xmlns="http://www.w3.org/2000/svg">
<path d="M42.0525 6.81348H16.469C16.0454 6.81361 15.6391 6.98196 15.3395 7.28152C15.04 7.58108 14.8716 7.98733 14.8715 8.41098V32.4455C14.2899 32.3158 13.6959 32.2498 13.1 32.2485C9.372 32.2485 6.35 34.6965 6.35 37.7175C6.35 40.738 9.372 43.186 13.1 43.186C16.8275 43.186 19.85 40.738 19.85 37.7175V14.6285H38.672V27.829C38.0904 27.6993 37.4964 27.6333 36.9005 27.632C33.1725 27.632 30.1505 30.08 30.1505 33.101C30.1505 36.122 33.1725 38.5695 36.9005 38.5695C40.628 38.5695 43.6505 36.1215 43.6505 33.101V8.41148C43.6504 7.9877 43.482 7.58132 43.1823 7.28167C42.8827 6.98201 42.4763 6.81361 42.0525 6.81348Z" fill="white"/>
<path d="M64.6934 11.9062H69.1582L75.7324 30.6973L82.3066 11.9062H86.7715L77.5254 37.5H73.9395L64.6934 11.9062ZM62.2852 11.9062H66.7324L67.541 30.2227V37.5H62.2852V11.9062ZM84.7324 11.9062H89.1973V37.5H83.9238V30.2227L84.7324 11.9062ZM104.754 32.9473V18.4805H109.816V37.5H105.053L104.754 32.9473ZM105.316 29.0449L106.811 29.0098C106.811 30.2754 106.664 31.4531 106.371 32.543C106.078 33.6211 105.639 34.5586 105.053 35.3555C104.467 36.1406 103.729 36.7559 102.838 37.2012C101.947 37.6348 100.898 37.8516 99.6914 37.8516C98.7656 37.8516 97.9102 37.7227 97.125 37.4648C96.3516 37.1953 95.6836 36.7793 95.1211 36.2168C94.5703 35.6426 94.1367 34.9102 93.8203 34.0195C93.5156 33.1172 93.3633 32.0332 93.3633 30.7676V18.4805H98.4258V30.8027C98.4258 31.3652 98.4902 31.8398 98.6191 32.2266C98.7598 32.6133 98.9531 32.9297 99.1992 33.1758C99.4453 33.4219 99.7324 33.5977 100.061 33.7031C100.4 33.8086 100.775 33.8613 101.186 33.8613C102.229 33.8613 103.049 33.6504 103.646 33.2285C104.256 32.8066 104.684 32.2324 104.93 31.5059C105.188 30.7676 105.316 29.9473 105.316 29.0449ZM123.967 32.2441C123.967 31.8809 123.861 31.5527 123.65 31.2598C123.439 30.9668 123.047 30.6973 122.473 30.4512C121.91 30.1934 121.096 29.959 120.029 29.748C119.068 29.5371 118.172 29.2734 117.34 28.957C116.52 28.6289 115.805 28.2363 115.195 27.7793C114.598 27.3223 114.129 26.7832 113.789 26.1621C113.449 25.5293 113.279 24.8086 113.279 24C113.279 23.2031 113.449 22.4531 113.789 21.75C114.141 21.0469 114.639 20.4258 115.283 19.8867C115.939 19.3359 116.736 18.9082 117.674 18.6035C118.623 18.2871 119.689 18.1289 120.873 18.1289C122.525 18.1289 123.943 18.3926 125.127 18.9199C126.322 19.4473 127.236 20.1738 127.869 21.0996C128.514 22.0137 128.836 23.0566 128.836 24.2285H123.773C123.773 23.7363 123.668 23.2969 123.457 22.9102C123.258 22.5117 122.941 22.2012 122.508 21.9785C122.086 21.7441 121.535 21.627 120.855 21.627C120.293 21.627 119.807 21.7266 119.396 21.9258C118.986 22.1133 118.67 22.3711 118.447 22.6992C118.236 23.0156 118.131 23.3672 118.131 23.7539C118.131 24.0469 118.189 24.3105 118.307 24.5449C118.436 24.7676 118.641 24.9727 118.922 25.1602C119.203 25.3477 119.566 25.5234 120.012 25.6875C120.469 25.8398 121.031 25.9805 121.699 26.1094C123.07 26.3906 124.295 26.7598 125.373 27.2168C126.451 27.6621 127.307 28.2715 127.939 29.0449C128.572 29.8066 128.889 30.8086 128.889 32.0508C128.889 32.8945 128.701 33.668 128.326 34.3711C127.951 35.0742 127.412 35.6895 126.709 36.2168C126.006 36.7324 125.162 37.1367 124.178 37.4297C123.205 37.7109 122.109 37.8516 120.891 37.8516C119.121 37.8516 117.621 37.5352 116.391 36.9023C115.172 36.2695 114.246 35.4668 113.613 34.4941C112.992 33.5098 112.682 32.502 112.682 31.4707H117.48C117.504 32.1621 117.68 32.7188 118.008 33.1406C118.348 33.5625 118.775 33.8672 119.291 34.0547C119.818 34.2422 120.387 34.3359 120.996 34.3359C121.652 34.3359 122.197 34.248 122.631 34.0723C123.064 33.8848 123.393 33.6387 123.615 33.334C123.85 33.0176 123.967 32.6543 123.967 32.2441ZM137.52 18.4805V37.5H132.439V18.4805H137.52ZM132.123 13.5234C132.123 12.7852 132.381 12.1758 132.896 11.6953C133.412 11.2148 134.104 10.9746 134.971 10.9746C135.826 10.9746 136.512 11.2148 137.027 11.6953C137.555 12.1758 137.818 12.7852 137.818 13.5234C137.818 14.2617 137.555 14.8711 137.027 15.3516C136.512 15.832 135.826 16.0723 134.971 16.0723C134.104 16.0723 133.412 15.832 132.896 15.3516C132.381 14.8711 132.123 14.2617 132.123 13.5234ZM149.561 33.8965C150.182 33.8965 150.732 33.7793 151.213 33.5449C151.693 33.2988 152.068 32.959 152.338 32.5254C152.619 32.0801 152.766 31.5586 152.777 30.9609H157.541C157.529 32.2969 157.172 33.4863 156.469 34.5293C155.766 35.5605 154.822 36.375 153.639 36.9727C152.455 37.5586 151.131 37.8516 149.666 37.8516C148.189 37.8516 146.9 37.6055 145.799 37.1133C144.709 36.6211 143.801 35.9414 143.074 35.0742C142.348 34.1953 141.803 33.1758 141.439 32.0156C141.076 30.8438 140.895 29.5898 140.895 28.2539V27.7441C140.895 26.3965 141.076 25.1426 141.439 23.9824C141.803 22.8105 142.348 21.791 143.074 20.9238C143.801 20.0449 144.709 19.3594 145.799 18.8672C146.889 18.375 148.166 18.1289 149.631 18.1289C151.189 18.1289 152.555 18.4277 153.727 19.0254C154.91 19.623 155.836 20.4785 156.504 21.5918C157.184 22.6934 157.529 24 157.541 25.5117H152.777C152.766 24.8789 152.631 24.3047 152.373 23.7891C152.127 23.2734 151.764 22.8633 151.283 22.5586C150.814 22.2422 150.234 22.084 149.543 22.084C148.805 22.084 148.201 22.2422 147.732 22.5586C147.264 22.8633 146.9 23.2852 146.643 23.8242C146.385 24.3516 146.203 24.9551 146.098 25.6348C146.004 26.3027 145.957 27.0059 145.957 27.7441V28.2539C145.957 28.9922 146.004 29.7012 146.098 30.3809C146.191 31.0605 146.367 31.6641 146.625 32.1914C146.895 32.7188 147.264 33.1348 147.732 33.4395C148.201 33.7441 148.811 33.8965 149.561 33.8965Z" fill="white"/>
</svg>
